<svg width="357" height="367" viewBox="0 0 357 367" fill="none" xmlns="http://www.w3.org/2000/svg">
<ellipse cx="24.5" cy="23.2955" rx="24.5" ry="23.2955" fill="#0F0F0E"/>
<path d="M356.5 23.5372C356.5 36.403 345.531 46.8327 332 46.8327C318.469 46.8327 307.5 36.403 307.5 23.5372C307.5 10.6715 318.469 0.241792 332 0.241792C345.531 0.241792 356.5 10.6715 356.5 23.5372Z" fill="#0F0F0E"/>
<ellipse cx="35.5" cy="353.023" rx="14.5" ry="13.9773" fill="#090908"/>
<ellipse cx="73.5" cy="353.023" rx="14.5" ry="13.9773" fill="#090908"/>
<ellipse cx="112" cy="353.023" rx="14" ry="13.9773" fill="#090908"/>
<ellipse cx="150.5" cy="353.023" rx="14.5" ry="13.9773" fill="#090908"/>
<ellipse cx="188.5" cy="353.023" rx="14.5" ry="13.9773" fill="#090908"/>
<ellipse cx="227" cy="353.023" rx="14" ry="13.9773" fill="#090908"/>
<ellipse cx="265.5" cy="353.023" rx="14.5" ry="13.9773" fill="#090908"/>
<ellipse cx="303.5" cy="353.023" rx="14.5" ry="13.9773" fill="#090908"/>
</svg>
