<svg width="90" height="87" viewBox="0 0 90 87" fill="none" xmlns="http://www.w3.org/2000/svg">
<path d="M17.3025 65.4517C21.1242 62.6597 25.3955 60.4583 30.1165 58.8475C34.8374 57.2367 39.7832 56.4313 44.9538 56.4313C50.1243 56.4313 55.0701 57.2367 59.791 58.8475C64.512 60.4583 68.7833 62.6597 72.6051 65.4517C75.2278 62.5165 77.2698 59.1876 78.7311 55.4649C80.1923 51.7422 80.9229 47.7689 80.9229 43.5451C80.9229 34.0235 77.4197 25.9159 70.4132 19.2222C63.4067 12.5285 54.9202 9.18167 44.9538 9.18167C34.9873 9.18167 26.5008 12.5285 19.4944 19.2222C12.4879 25.9159 8.98461 34.0235 8.98461 43.5451C8.98461 47.7689 9.71524 51.7422 11.1765 55.4649C12.6377 59.1876 14.6797 62.5165 17.3025 65.4517ZM44.9538 47.8405C40.5326 47.8405 36.8045 46.3908 33.7696 43.4914C30.7347 40.592 29.2173 37.0303 29.2173 32.8065C29.2173 28.5827 30.7347 25.0211 33.7696 22.1216C36.8045 19.2222 40.5326 17.7725 44.9538 17.7725C49.375 17.7725 53.103 19.2222 56.1379 22.1216C59.1728 25.0211 60.6903 28.5827 60.6903 32.8065C60.6903 37.0303 59.1728 40.592 56.1379 43.4914C53.103 46.3908 49.375 47.8405 44.9538 47.8405ZM44.9538 86.4993C38.7341 86.4993 32.8891 85.3718 27.4188 83.1167C21.9485 80.8616 17.1901 77.8011 13.1435 73.9352C9.09702 70.0693 5.89352 65.5233 3.53304 60.2972C1.17256 55.0711 -0.00767517 49.4871 -0.00767517 43.5451C-0.00767517 37.6031 1.17256 32.019 3.53304 26.7929C5.89352 21.5668 9.09702 17.0208 13.1435 13.1549C17.1901 9.28906 21.9485 6.22857 27.4188 3.97347C32.8891 1.71837 38.7341 0.59082 44.9538 0.59082C51.1734 0.59082 57.0184 1.71837 62.4887 3.97347C67.9591 6.22857 72.7175 9.28906 76.764 13.1549C80.8105 17.0208 84.014 21.5668 86.3745 26.7929C88.735 32.019 89.9152 37.6031 89.9152 43.5451C89.9152 49.4871 88.735 55.0711 86.3745 60.2972C84.014 65.5233 80.8105 70.0693 76.764 73.9352C72.7175 77.8011 67.9591 80.8616 62.4887 83.1167C57.0184 85.3718 51.1734 86.4993 44.9538 86.4993Z" fill="#D5D5D5"/>
</svg>
