<svg width="252" height="92" viewBox="0 0 252 92" fill="none" xmlns="http://www.w3.org/2000/svg">
<mask id="mask0_86_284" style="mask-type:alpha" maskUnits="userSpaceOnUse" x="0" y="0" width="65" height="92">
<rect width="65" height="92" fill="#D9D9D9"/>
</mask>
<g mask="url(#mask0_86_284)">
<path d="M2.70837 72.8333V19.1666H8.12504V72.8333H2.70837ZM10.8334 72.8333V19.1666H16.25V72.8333H10.8334ZM18.9584 72.8333V19.1666H21.6667V72.8333H18.9584ZM27.0834 72.8333V19.1666H32.5V72.8333H27.0834ZM35.2084 72.8333V19.1666H43.3334V72.8333H35.2084ZM46.0417 72.8333V19.1666H48.75V72.8333H46.0417ZM54.1667 72.8333V19.1666H62.2917V72.8333H54.1667Z" fill="#D5D5D5"/>
</g>
<mask id="mask1_86_284" style="mask-type:alpha" maskUnits="userSpaceOnUse" x="65" y="0" width="65" height="92">
<rect x="65" width="65" height="92" fill="#D9D9D9"/>
</mask>
<g mask="url(#mask1_86_284)">
<path d="M67.7084 72.8333V19.1666H73.125V72.8333H67.7084ZM75.8334 72.8333V19.1666H81.25V72.8333H75.8334ZM83.9584 72.8333V19.1666H86.6667V72.8333H83.9584ZM92.0834 72.8333V19.1666H97.5V72.8333H92.0834ZM100.208 72.8333V19.1666H108.333V72.8333H100.208ZM111.042 72.8333V19.1666H113.75V72.8333H111.042ZM119.167 72.8333V19.1666H127.292V72.8333H119.167Z" fill="#D5D5D5"/>
</g>
<mask id="mask2_86_284" style="mask-type:alpha" maskUnits="userSpaceOnUse" x="130" y="0" width="65" height="92">
<rect x="130" width="65" height="92" fill="#D9D9D9"/>
</mask>
<g mask="url(#mask2_86_284)">
<path d="M132.708 72.8333V19.1666H138.125V72.8333H132.708ZM140.833 72.8333V19.1666H146.25V72.8333H140.833ZM148.958 72.8333V19.1666H151.667V72.8333H148.958ZM157.083 72.8333V19.1666H162.5V72.8333H157.083ZM165.208 72.8333V19.1666H173.333V72.8333H165.208ZM176.042 72.8333V19.1666H178.75V72.8333H176.042ZM184.167 72.8333V19.1666H192.292V72.8333H184.167Z" fill="#D5D5D5"/>
</g>
<mask id="mask3_86_284" style="mask-type:alpha" maskUnits="userSpaceOnUse" x="187" y="0" width="65" height="92">
<rect x="187" width="65" height="92" fill="#D9D9D9"/>
</mask>
<g mask="url(#mask3_86_284)">
<path d="M189.708 72.8333V19.1666H195.125V72.8333H189.708ZM197.833 72.8333V19.1666H203.25V72.8333H197.833ZM205.958 72.8333V19.1666H208.667V72.8333H205.958ZM214.083 72.8333V19.1666H219.5V72.8333H214.083ZM222.208 72.8333V19.1666H230.333V72.8333H222.208ZM233.042 72.8333V19.1666H235.75V72.8333H233.042ZM241.167 72.8333V19.1666H249.292V72.8333H241.167Z" fill="#D5D5D5"/>
</g>
</svg>
