<svg width="30" height="24" viewBox="0 0 30 24" fill="none" xmlns="http://www.w3.org/2000/svg">
<path d="M15 19.5C15.425 19.5 15.7813 19.3563 16.0688 19.0688C16.3563 18.7812 16.5 18.425 16.5 18C16.5 17.575 16.3563 17.2188 16.0688 16.9313C15.7813 16.6438 15.425 16.5 15 16.5C14.575 16.5 14.2188 16.6438 13.9313 16.9313C13.6438 17.2188 13.5 17.575 13.5 18C13.5 18.425 13.6438 18.7812 13.9313 19.0688C14.2188 19.3563 14.575 19.5 15 19.5ZM15 13.5C15.425 13.5 15.7813 13.3563 16.0688 13.0688C16.3563 12.7813 16.5 12.425 16.5 12C16.5 11.575 16.3563 11.2188 16.0688 10.9312C15.7813 10.6438 15.425 10.5 15 10.5C14.575 10.5 14.2188 10.6438 13.9313 10.9312C13.6438 11.2188 13.5 11.575 13.5 12C13.5 12.425 13.6438 12.7813 13.9313 13.0688C14.2188 13.3563 14.575 13.5 15 13.5ZM15 7.5C15.425 7.5 15.7813 7.35625 16.0688 7.06875C16.3563 6.78125 16.5 6.425 16.5 6C16.5 5.575 16.3563 5.21875 16.0688 4.93125C15.7813 4.64375 15.425 4.5 15 4.5C14.575 4.5 14.2188 4.64375 13.9313 4.93125C13.6438 5.21875 13.5 5.575 13.5 6C13.5 6.425 13.6438 6.78125 13.9313 7.06875C14.2188 7.35625 14.575 7.5 15 7.5ZM27 24H3C2.175 24 1.46875 23.7063 0.88125 23.1188C0.29375 22.5312 0 21.825 0 21V15C0.825 15 1.53125 14.7063 2.11875 14.1188C2.70625 13.5313 3 12.825 3 12C3 11.175 2.70625 10.4688 2.11875 9.88125C1.53125 9.29375 0.825 9 0 9V3C0 2.175 0.29375 1.46875 0.88125 0.88125C1.46875 0.29375 2.175 0 3 0H27C27.825 0 28.5312 0.29375 29.1188 0.88125C29.7063 1.46875 30 2.175 30 3V9C29.175 9 28.4688 9.29375 27.8812 9.88125C27.2937 10.4688 27 11.175 27 12C27 12.825 27.2937 13.5313 27.8812 14.1188C28.4688 14.7063 29.175 15 30 15V21C30 21.825 29.7063 22.5312 29.1188 23.1188C28.5312 23.7063 27.825 24 27 24Z" fill="#9800BF"/>
</svg>
