<svg width="370" height="45" viewBox="0 0 370 45" fill="none" xmlns="http://www.w3.org/2000/svg">
<rect width="40" height="45" rx="8" fill="#343231" fill-opacity="0.79"/>
<path d="M14.0576 10.5V9.252H16.5536V18H15.1736V10.5H14.0576ZM18.2649 16.176V15.144L22.2969 9.36H23.9529V14.988H25.0689V16.176H23.9529V18H22.6089V16.176H18.2649ZM22.6689 10.752L19.8369 14.988H22.6689V10.752ZM16.1703 27.66V36H14.8023V30.288L12.2583 36H11.3103L8.75433 30.288V36H7.38633V27.66H8.86233L11.7903 34.2L14.7063 27.66H16.1703ZM20.8364 36.108C20.2124 36.108 19.6484 35.968 19.1444 35.688C18.6404 35.4 18.2444 35 17.9564 34.488C17.6684 33.968 17.5244 33.368 17.5244 32.688C17.5244 32.016 17.6724 31.42 17.9684 30.9C18.2644 30.38 18.6684 29.98 19.1804 29.7C19.6924 29.42 20.2644 29.28 20.8964 29.28C21.5284 29.28 22.1004 29.42 22.6124 29.7C23.1244 29.98 23.5284 30.38 23.8244 30.9C24.1204 31.42 24.2684 32.016 24.2684 32.688C24.2684 33.36 24.1164 33.956 23.8124 34.476C23.5084 34.996 23.0924 35.4 22.5644 35.688C22.0444 35.968 21.4684 36.108 20.8364 36.108ZM20.8364 34.92C21.1884 34.92 21.5164 34.836 21.8204 34.668C22.1324 34.5 22.3844 34.248 22.5764 33.912C22.7684 33.576 22.8644 33.168 22.8644 32.688C22.8644 32.208 22.7724 31.804 22.5884 31.476C22.4044 31.14 22.1604 30.888 21.8564 30.72C21.5524 30.552 21.2244 30.468 20.8724 30.468C20.5204 30.468 20.1924 30.552 19.8884 30.72C19.5924 30.888 19.3564 31.14 19.1804 31.476C19.0044 31.804 18.9164 32.208 18.9164 32.688C18.9164 33.4 19.0964 33.952 19.4564 34.344C19.8244 34.728 20.2844 34.92 20.8364 34.92ZM28.9567 29.28C29.4767 29.28 29.9407 29.388 30.3487 29.604C30.7647 29.82 31.0887 30.14 31.3207 30.564C31.5527 30.988 31.6687 31.5 31.6687 32.1V36H30.3127V32.304C30.3127 31.712 30.1647 31.26 29.8687 30.948C29.5727 30.628 29.1687 30.468 28.6567 30.468C28.1447 30.468 27.7367 30.628 27.4327 30.948C27.1367 31.26 26.9887 31.712 26.9887 32.304V36H25.6207V29.388H26.9887V30.144C27.2127 29.872 27.4967 29.66 27.8407 29.508C28.1927 29.356 28.5647 29.28 28.9567 29.28Z" fill="white"/>
<rect x="58" width="40" height="45" rx="8" fill="#343231" fill-opacity="0.79"/>
<path d="M72.1103 10.5V9.252H74.6063V18H73.2263V10.5H72.1103ZM82.1256 10.428H78.1056V12.816C78.2736 12.592 78.5216 12.404 78.8496 12.252C79.1856 12.1 79.5416 12.024 79.9176 12.024C80.5896 12.024 81.1336 12.168 81.5496 12.456C81.9736 12.744 82.2736 13.108 82.4496 13.548C82.6336 13.988 82.7256 14.452 82.7256 14.94C82.7256 15.532 82.6096 16.06 82.3776 16.524C82.1536 16.98 81.8136 17.34 81.3576 17.604C80.9096 17.868 80.3576 18 79.7016 18C78.8296 18 78.1296 17.784 77.6016 17.352C77.0736 16.92 76.7576 16.348 76.6536 15.636H77.9856C78.0736 16.012 78.2696 16.312 78.5736 16.536C78.8776 16.752 79.2576 16.86 79.7136 16.86C80.2816 16.86 80.7056 16.688 80.9856 16.344C81.2736 16 81.4176 15.544 81.4176 14.976C81.4176 14.4 81.2736 13.96 80.9856 13.656C80.6976 13.344 80.2736 13.188 79.7136 13.188C79.3216 13.188 78.9896 13.288 78.7176 13.488C78.4536 13.68 78.2616 13.944 78.1416 14.28H76.8456V9.228H82.1256V10.428ZM72.8017 27.66V28.776H70.5817V36H69.2137V28.776H66.9817V27.66H72.8017ZM80.1751 29.388V36H78.8071V35.22C78.5911 35.492 78.3071 35.708 77.9551 35.868C77.6111 36.02 77.2431 36.096 76.8511 36.096C76.3311 36.096 75.8631 35.988 75.4471 35.772C75.0391 35.556 74.7151 35.236 74.4751 34.812C74.2431 34.388 74.1271 33.876 74.1271 33.276V29.388H75.4831V33.072C75.4831 33.664 75.6311 34.12 75.9271 34.44C76.2231 34.752 76.6271 34.908 77.1391 34.908C77.6511 34.908 78.0551 34.752 78.3511 34.44C78.6551 34.12 78.8071 33.664 78.8071 33.072V29.388H80.1751ZM88.0401 32.532C88.0401 32.78 88.0241 33.004 87.9921 33.204H82.9401C82.9801 33.732 83.1761 34.156 83.5281 34.476C83.8801 34.796 84.3121 34.956 84.8241 34.956C85.5601 34.956 86.0801 34.648 86.3841 34.032H87.8601C87.6601 34.64 87.2961 35.14 86.7681 35.532C86.2481 35.916 85.6001 36.108 84.8241 36.108C84.1921 36.108 83.6241 35.968 83.1201 35.688C82.6241 35.4 82.2321 35 81.9441 34.488C81.6641 33.968 81.5241 33.368 81.5241 32.688C81.5241 32.008 81.6601 31.412 81.9321 30.9C82.2121 30.38 82.6001 29.98 83.0961 29.7C83.6001 29.42 84.1761 29.28 84.8241 29.28C85.4481 29.28 86.0041 29.416 86.4921 29.688C86.9801 29.96 87.3601 30.344 87.6321 30.84C87.9041 31.328 88.0401 31.892 88.0401 32.532ZM86.6121 32.1C86.6041 31.596 86.4241 31.192 86.0721 30.888C85.7201 30.584 85.2841 30.432 84.7641 30.432C84.2921 30.432 83.8881 30.584 83.5521 30.888C83.2161 31.184 83.0161 31.588 82.9521 32.1H86.6121Z" fill="white"/>
<rect x="116" width="40" height="45" rx="8" fill="#9800BF"/>
<path d="M130.093 10.5V9.252H132.589V18H131.209V10.5H130.093ZM139.172 11.28C139.084 10.912 138.924 10.636 138.692 10.452C138.46 10.268 138.136 10.176 137.72 10.176C137.088 10.176 136.616 10.42 136.304 10.908C135.992 11.388 135.828 12.188 135.812 13.308C136.02 12.956 136.324 12.684 136.724 12.492C137.124 12.3 137.556 12.204 138.02 12.204C138.548 12.204 139.012 12.32 139.412 12.552C139.82 12.776 140.136 13.104 140.36 13.536C140.592 13.968 140.708 14.484 140.708 15.084C140.708 15.644 140.596 16.144 140.372 16.584C140.156 17.024 139.832 17.372 139.4 17.628C138.968 17.876 138.448 18 137.84 18C137.016 18 136.368 17.82 135.896 17.46C135.432 17.092 135.104 16.576 134.912 15.912C134.728 15.248 134.636 14.42 134.636 13.428C134.636 10.5 135.668 9.036 137.732 9.036C138.532 9.036 139.16 9.252 139.616 9.684C140.08 10.116 140.352 10.648 140.432 11.28H139.172ZM137.72 13.356C137.232 13.356 136.816 13.504 136.472 13.8C136.136 14.088 135.968 14.508 135.968 15.06C135.968 15.612 136.124 16.052 136.436 16.38C136.756 16.7 137.2 16.86 137.768 16.86C138.272 16.86 138.668 16.704 138.956 16.392C139.252 16.08 139.4 15.664 139.4 15.144C139.4 14.6 139.256 14.168 138.968 13.848C138.688 13.52 138.272 13.356 137.72 13.356ZM133.496 27.66L131.024 36H129.476L127.724 29.688L125.864 36L124.328 36.012L121.964 27.66H123.416L125.144 34.452L127.016 27.66H128.552L130.292 34.416L132.032 27.66H133.496ZM140.685 32.532C140.685 32.78 140.669 33.004 140.637 33.204H135.585C135.625 33.732 135.821 34.156 136.173 34.476C136.525 34.796 136.957 34.956 137.469 34.956C138.205 34.956 138.725 34.648 139.029 34.032H140.505C140.305 34.64 139.941 35.14 139.413 35.532C138.893 35.916 138.245 36.108 137.469 36.108C136.837 36.108 136.269 35.968 135.765 35.688C135.269 35.4 134.877 35 134.589 34.488C134.309 33.968 134.169 33.368 134.169 32.688C134.169 32.008 134.305 31.412 134.577 30.9C134.857 30.38 135.245 29.98 135.741 29.7C136.245 29.42 136.821 29.28 137.469 29.28C138.093 29.28 138.649 29.416 139.137 29.688C139.625 29.96 140.005 30.344 140.277 30.84C140.549 31.328 140.685 31.892 140.685 32.532ZM139.257 32.1C139.249 31.596 139.069 31.192 138.717 30.888C138.365 30.584 137.929 30.432 137.409 30.432C136.937 30.432 136.533 30.584 136.197 30.888C135.861 31.184 135.661 31.588 135.597 32.1H139.257ZM141.575 32.664C141.575 32 141.711 31.412 141.983 30.9C142.263 30.388 142.639 29.992 143.111 29.712C143.591 29.424 144.123 29.28 144.707 29.28C145.139 29.28 145.563 29.376 145.979 29.568C146.403 29.752 146.739 30 146.987 30.312V27.12H148.367V36H146.987V35.004C146.763 35.324 146.451 35.588 146.051 35.796C145.659 36.004 145.207 36.108 144.695 36.108C144.119 36.108 143.591 35.964 143.111 35.676C142.639 35.38 142.263 34.972 141.983 34.452C141.711 33.924 141.575 33.328 141.575 32.664ZM146.987 32.688C146.987 32.232 146.891 31.836 146.699 31.5C146.515 31.164 146.271 30.908 145.967 30.732C145.663 30.556 145.335 30.468 144.983 30.468C144.631 30.468 144.303 30.556 143.999 30.732C143.695 30.9 143.447 31.152 143.255 31.488C143.071 31.816 142.979 32.208 142.979 32.664C142.979 33.12 143.071 33.52 143.255 33.864C143.447 34.208 143.695 34.472 143.999 34.656C144.311 34.832 144.639 34.92 144.983 34.92C145.335 34.92 145.663 34.832 145.967 34.656C146.271 34.48 146.515 34.224 146.699 33.888C146.891 33.544 146.987 33.144 146.987 32.688Z" fill="white"/>
<rect x="174" width="40" height="45" rx="8" fill="#343231" fill-opacity="0.79"/>
<path d="M188.585 10.5V9.252H191.081V18H189.701V10.5H188.585ZM198.504 10.308L195.168 18H193.788L197.16 10.452H192.72V9.288H198.504V10.308ZM188.608 27.66V28.776H186.388V36H185.02V28.776H182.788V27.66H188.608ZM193.414 29.28C193.918 29.28 194.366 29.388 194.758 29.604C195.158 29.82 195.47 30.14 195.694 30.564C195.926 30.988 196.042 31.5 196.042 32.1V36H194.686V32.304C194.686 31.712 194.538 31.26 194.242 30.948C193.946 30.628 193.542 30.468 193.03 30.468C192.518 30.468 192.11 30.628 191.806 30.948C191.51 31.26 191.362 31.712 191.362 32.304V36H189.994V27.12H191.362V30.156C191.594 29.876 191.886 29.66 192.238 29.508C192.598 29.356 192.99 29.28 193.414 29.28ZM203.775 29.388V36H202.407V35.22C202.191 35.492 201.907 35.708 201.555 35.868C201.211 36.02 200.843 36.096 200.451 36.096C199.931 36.096 199.463 35.988 199.047 35.772C198.639 35.556 198.315 35.236 198.075 34.812C197.843 34.388 197.727 33.876 197.727 33.276V29.388H199.083V33.072C199.083 33.664 199.231 34.12 199.527 34.44C199.823 34.752 200.227 34.908 200.739 34.908C201.251 34.908 201.655 34.752 201.951 34.44C202.255 34.12 202.407 33.664 202.407 33.072V29.388H203.775Z" fill="white"/>
<rect x="232" width="40" height="45" rx="8" fill="#343231"/>
<path d="M246.116 10.5V9.252H248.612V18H247.232V10.5H246.116ZM251.967 13.428C251.135 13.012 250.719 12.356 250.719 11.46C250.719 11.028 250.827 10.632 251.043 10.272C251.259 9.912 251.583 9.628 252.015 9.42C252.447 9.204 252.975 9.096 253.599 9.096C254.215 9.096 254.739 9.204 255.171 9.42C255.611 9.628 255.939 9.912 256.155 10.272C256.371 10.632 256.479 11.028 256.479 11.46C256.479 11.908 256.363 12.304 256.131 12.648C255.907 12.984 255.607 13.244 255.231 13.428C255.687 13.596 256.047 13.872 256.311 14.256C256.575 14.632 256.707 15.076 256.707 15.588C256.707 16.108 256.575 16.568 256.311 16.968C256.047 17.368 255.679 17.676 255.207 17.892C254.735 18.108 254.199 18.216 253.599 18.216C252.999 18.216 252.463 18.108 251.991 17.892C251.527 17.676 251.163 17.368 250.899 16.968C250.635 16.568 250.503 16.108 250.503 15.588C250.503 15.068 250.635 14.62 250.899 14.244C251.163 13.868 251.519 13.596 251.967 13.428ZM255.171 11.628C255.171 11.18 255.031 10.836 254.751 10.596C254.471 10.356 254.087 10.236 253.599 10.236C253.119 10.236 252.739 10.356 252.459 10.596C252.179 10.836 252.039 11.184 252.039 11.64C252.039 12.04 252.183 12.368 252.471 12.624C252.767 12.872 253.143 12.996 253.599 12.996C254.055 12.996 254.431 12.868 254.727 12.612C255.023 12.356 255.171 12.028 255.171 11.628ZM253.599 14.028C253.071 14.028 252.639 14.16 252.303 14.424C251.975 14.68 251.811 15.052 251.811 15.54C251.811 15.996 251.971 16.368 252.291 16.656C252.611 16.936 253.047 17.076 253.599 17.076C254.143 17.076 254.571 16.932 254.883 16.644C255.203 16.356 255.363 15.988 255.363 15.54C255.363 15.06 255.199 14.688 254.871 14.424C254.551 14.16 254.127 14.028 253.599 14.028ZM250.335 27.66V28.776H246.795V31.236H249.555V32.352H246.795V36H245.427V27.66H250.335ZM252.971 30.348C253.171 30.012 253.435 29.752 253.763 29.568C254.099 29.376 254.495 29.28 254.951 29.28V30.696H254.603C254.067 30.696 253.659 30.832 253.379 31.104C253.107 31.376 252.971 31.848 252.971 32.52V36H251.603V29.388H252.971V30.348ZM256.905 28.512C256.657 28.512 256.449 28.428 256.281 28.26C256.113 28.092 256.029 27.884 256.029 27.636C256.029 27.388 256.113 27.18 256.281 27.012C256.449 26.844 256.657 26.76 256.905 26.76C257.145 26.76 257.349 26.844 257.517 27.012C257.685 27.18 257.769 27.388 257.769 27.636C257.769 27.884 257.685 28.092 257.517 28.26C257.349 28.428 257.145 28.512 256.905 28.512ZM257.577 29.388V36H256.209V29.388H257.577Z" fill="white"/>
<rect x="290" width="40" height="45" rx="8" fill="#343231" fill-opacity="0.79"/>
<path d="M304.134 10.5V9.252H306.63V18H305.25V10.5H304.134ZM310.213 15.624C310.293 16.024 310.465 16.328 310.729 16.536C310.993 16.744 311.349 16.848 311.797 16.848C312.365 16.848 312.781 16.624 313.045 16.176C313.309 15.728 313.441 14.964 313.441 13.884C313.249 14.156 312.977 14.368 312.625 14.52C312.281 14.664 311.905 14.736 311.497 14.736C310.977 14.736 310.505 14.632 310.081 14.424C309.657 14.208 309.321 13.892 309.073 13.476C308.833 13.052 308.713 12.54 308.713 11.94C308.713 11.06 308.969 10.36 309.481 9.84C310.001 9.312 310.713 9.048 311.617 9.048C312.705 9.048 313.477 9.412 313.933 10.14C314.397 10.86 314.629 11.968 314.629 13.464C314.629 14.496 314.541 15.34 314.365 15.996C314.197 16.652 313.901 17.148 313.477 17.484C313.053 17.82 312.465 17.988 311.713 17.988C310.857 17.988 310.197 17.764 309.733 17.316C309.269 16.868 309.009 16.304 308.953 15.624H310.213ZM311.737 13.584C312.217 13.584 312.593 13.436 312.865 13.14C313.145 12.836 313.285 12.436 313.285 11.94C313.285 11.388 313.137 10.96 312.841 10.656C312.553 10.344 312.157 10.188 311.653 10.188C311.149 10.188 310.749 10.348 310.453 10.668C310.165 10.98 310.021 11.392 310.021 11.904C310.021 12.392 310.161 12.796 310.441 13.116C310.729 13.428 311.161 13.584 311.737 13.584ZM303.228 36.084C302.668 36.084 302.164 35.988 301.716 35.796C301.268 35.596 300.916 35.316 300.66 34.956C300.404 34.596 300.276 34.176 300.276 33.696H301.74C301.772 34.056 301.912 34.352 302.16 34.584C302.416 34.816 302.772 34.932 303.228 34.932C303.7 34.932 304.068 34.82 304.332 34.596C304.596 34.364 304.728 34.068 304.728 33.708C304.728 33.428 304.644 33.2 304.476 33.024C304.316 32.848 304.112 32.712 303.864 32.616C303.624 32.52 303.288 32.416 302.856 32.304C302.312 32.16 301.868 32.016 301.524 31.872C301.188 31.72 300.9 31.488 300.66 31.176C300.42 30.864 300.3 30.448 300.3 29.928C300.3 29.448 300.42 29.028 300.66 28.668C300.9 28.308 301.236 28.032 301.668 27.84C302.1 27.648 302.6 27.552 303.168 27.552C303.976 27.552 304.636 27.756 305.148 28.164C305.668 28.564 305.956 29.116 306.012 29.82H304.5C304.476 29.516 304.332 29.256 304.068 29.04C303.804 28.824 303.456 28.716 303.024 28.716C302.632 28.716 302.312 28.816 302.064 29.016C301.816 29.216 301.692 29.504 301.692 29.88C301.692 30.136 301.768 30.348 301.92 30.516C302.08 30.676 302.28 30.804 302.52 30.9C302.76 30.996 303.088 31.1 303.504 31.212C304.056 31.364 304.504 31.516 304.848 31.668C305.2 31.82 305.496 32.056 305.736 32.376C305.984 32.688 306.108 33.108 306.108 33.636C306.108 34.06 305.992 34.46 305.76 34.836C305.536 35.212 305.204 35.516 304.764 35.748C304.332 35.972 303.82 36.084 303.228 36.084ZM307.266 32.664C307.266 32 307.402 31.412 307.674 30.9C307.954 30.388 308.33 29.992 308.802 29.712C309.282 29.424 309.81 29.28 310.386 29.28C310.906 29.28 311.358 29.384 311.742 29.592C312.134 29.792 312.446 30.044 312.678 30.348V29.388H314.058V36H312.678V35.016C312.446 35.328 312.13 35.588 311.73 35.796C311.33 36.004 310.874 36.108 310.362 36.108C309.794 36.108 309.274 35.964 308.802 35.676C308.33 35.38 307.954 34.972 307.674 34.452C307.402 33.924 307.266 33.328 307.266 32.664ZM312.678 32.688C312.678 32.232 312.582 31.836 312.39 31.5C312.206 31.164 311.962 30.908 311.658 30.732C311.354 30.556 311.026 30.468 310.674 30.468C310.322 30.468 309.994 30.556 309.69 30.732C309.386 30.9 309.138 31.152 308.946 31.488C308.762 31.816 308.67 32.208 308.67 32.664C308.67 33.12 308.762 33.52 308.946 33.864C309.138 34.208 309.386 34.472 309.69 34.656C310.002 34.832 310.33 34.92 310.674 34.92C311.026 34.92 311.354 34.832 311.658 34.656C311.962 34.48 312.206 34.224 312.39 33.888C312.582 33.544 312.678 33.144 312.678 32.688ZM317.451 30.504V34.164C317.451 34.412 317.507 34.592 317.619 34.704C317.739 34.808 317.939 34.86 318.219 34.86H319.059V36H317.979C317.363 36 316.891 35.856 316.563 35.568C316.235 35.28 316.071 34.812 316.071 34.164V30.504H315.291V29.388H316.071V27.744H317.451V29.388H319.059V30.504H317.451Z" fill="white"/>
<mask id="mask0_80_867" style="mask-type:alpha" maskUnits="userSpaceOnUse" x="342" y="8" width="28" height="28">
<rect x="342" y="8" width="28" height="28" fill="#D9D9D9"/>
</mask>
<g mask="url(#mask0_80_867)">
<path d="M356 31.3333C355.358 31.3333 354.809 31.1048 354.352 30.6479C353.895 30.1909 353.667 29.6416 353.667 29C353.667 28.3583 353.895 27.809 354.352 27.352C354.809 26.8951 355.358 26.6666 356 26.6666C356.642 26.6666 357.191 26.8951 357.648 27.352C358.105 27.809 358.333 28.3583 358.333 29C358.333 29.6416 358.105 30.1909 357.648 30.6479C357.191 31.1048 356.642 31.3333 356 31.3333ZM356 24.3333C355.358 24.3333 354.809 24.1048 354.352 23.6479C353.895 23.1909 353.667 22.6416 353.667 22C353.667 21.3583 353.895 20.809 354.352 20.352C354.809 19.8951 355.358 19.6666 356 19.6666C356.642 19.6666 357.191 19.8951 357.648 20.352C358.105 20.809 358.333 21.3583 358.333 22C358.333 22.6416 358.105 23.1909 357.648 23.6479C357.191 24.1048 356.642 24.3333 356 24.3333ZM356 17.3333C355.358 17.3333 354.809 17.1048 354.352 16.6479C353.895 16.1909 353.667 15.6416 353.667 15C353.667 14.3583 353.895 13.809 354.352 13.352C354.809 12.8951 355.358 12.6666 356 12.6666C356.642 12.6666 357.191 12.8951 357.648 13.352C358.105 13.809 358.333 14.3583 358.333 15C358.333 15.6416 358.105 16.1909 357.648 16.6479C357.191 17.1048 356.642 17.3333 356 17.3333Z" fill="#D9D9D9" fill-opacity="0.72"/>
</g>
</svg>
