<svg width="36" height="36" viewBox="0 0 36 36" fill="none" xmlns="http://www.w3.org/2000/svg">
<mask id="mask0_720_132" style="mask-type:alpha" maskUnits="userSpaceOnUse" x="0" y="0" width="36" height="36">
<rect width="36" height="36" fill="#D9D9D9"/>
</mask>
<g mask="url(#mask0_720_132)">
<path d="M1.5 22.5C1.5 21 1.825 19.6875 2.475 18.5625C3.125 17.4375 3.975 16.5 5.025 15.75C6.075 15 7.275 14.4375 8.625 14.0625C9.975 13.6875 11.35 13.5 12.75 13.5C14.15 13.5 15.525 13.6875 16.875 14.0625C18.225 14.4375 19.425 15 20.475 15.75C21.525 16.5 22.375 17.4375 23.025 18.5625C23.675 19.6875 24 21 24 22.5H1.5ZM27 34.5V22.5C27 19.625 26.1187 17.1813 24.3563 15.1688C22.5938 13.1562 20.1125 11.75 16.9125 10.95L16.5 7.5H24V1.5H27V7.5H34.5L32.025 32.325C31.95 32.925 31.6812 33.4375 31.2188 33.8625C30.7563 34.2875 30.2 34.5 29.55 34.5H27ZM1.5 28.5V25.5H24V28.5H1.5ZM3 34.5C2.575 34.5 2.21875 34.3563 1.93125 34.0687C1.64375 33.7812 1.5 33.425 1.5 33V31.5H24V33C24 33.425 23.8563 33.7812 23.5688 34.0687C23.2812 34.3563 22.925 34.5 22.5 34.5H3Z" fill="#9800BF"/>
</g>
</svg>
