<svg width="24" height="24" viewBox="0 0 24 24" fill="none" xmlns="http://www.w3.org/2000/svg">
<path d="M2.66665 23.6666C2.02498 23.6666 1.47567 23.4382 1.01873 22.9812C0.561785 22.5243 0.333313 21.975 0.333313 21.3333V2.66665C0.333313 2.02498 0.561785 1.47567 1.01873 1.01873C1.47567 0.561785 2.02498 0.333313 2.66665 0.333313H21.3333C21.975 0.333313 22.5243 0.561785 22.9812 1.01873C23.4382 1.47567 23.6666 2.02498 23.6666 2.66665V21.3333C23.6666 21.975 23.4382 22.5243 22.9812 22.9812C22.5243 23.4382 21.975 23.6666 21.3333 23.6666H2.66665ZM6.16665 19H17.8333C18.475 19 19.0243 18.7715 19.4812 18.3146C19.9382 17.8576 20.1666 17.3083 20.1666 16.6666V12.5833C20.1666 12.0583 20.0354 11.5771 19.7729 11.1396C19.5104 10.7021 19.1555 10.3472 18.7083 10.075V8.49998C18.7083 7.52776 18.368 6.70137 17.6875 6.02081C17.0069 5.34026 16.1805 4.99998 15.2083 4.99998H8.79165C7.81942 4.99998 6.99304 5.34026 6.31248 6.02081C5.63192 6.70137 5.29165 7.52776 5.29165 8.49998V10.075C4.84442 10.3472 4.48956 10.7021 4.22706 11.1396C3.96456 11.5771 3.83331 12.0583 3.83331 12.5833V16.6666C3.83331 17.3083 4.06179 17.8576 4.51873 18.3146C4.97567 18.7715 5.52498 19 6.16665 19ZM6.16665 17.25C5.99165 17.25 5.85067 17.1965 5.74373 17.0896C5.63679 16.9826 5.58331 16.8416 5.58331 16.6666V12.5833C5.58331 12.2528 5.69512 11.9757 5.91873 11.7521C6.14234 11.5285 6.41942 11.4166 6.74998 11.4166C7.08054 11.4166 7.35762 11.5285 7.58123 11.7521C7.80484 11.9757 7.91665 12.2528 7.91665 12.5833V14.9166H16.0833V12.5833C16.0833 12.2528 16.1951 11.9757 16.4187 11.7521C16.6423 11.5285 16.9194 11.4166 17.25 11.4166C17.5805 11.4166 17.8576 11.5285 18.0812 11.7521C18.3048 11.9757 18.4166 12.2528 18.4166 12.5833V16.6666C18.4166 16.8416 18.3632 16.9826 18.2562 17.0896C18.1493 17.1965 18.0083 17.25 17.8333 17.25H6.16665ZM9.66665 13.1666V12.5833C9.66665 11.825 9.41387 11.1736 8.90831 10.6291C8.40276 10.0847 7.78054 9.78331 7.04165 9.72498V8.49998C7.04165 7.99442 7.20692 7.57637 7.53748 7.24581C7.86804 6.91526 8.28609 6.74998 8.79165 6.74998H15.2083C15.7139 6.74998 16.1319 6.91526 16.4625 7.24581C16.793 7.57637 16.9583 7.99442 16.9583 8.49998V9.72498C16.2194 9.78331 15.5972 10.0847 15.0916 10.6291C14.5861 11.1736 14.3333 11.825 14.3333 12.5833V13.1666H9.66665Z" fill="#D5D5D5" fill-opacity="0.38"/>
</svg>
