<svg width="28" height="28" viewBox="0 0 28 28" fill="none" xmlns="http://www.w3.org/2000/svg">
<mask id="mask0_44_258" style="mask-type:alpha" maskUnits="userSpaceOnUse" x="0" y="0" width="28" height="28">
<rect width="28" height="28" fill="#D9D9D9"/>
</mask>
<g mask="url(#mask0_44_258)">
<path d="M4.66667 22.1667V19.8334H7V11.6667C7 10.0528 7.48611 8.61879 8.45833 7.36462C9.43056 6.11046 10.6944 5.28893 12.25 4.90004V4.08337C12.25 3.59726 12.4201 3.18407 12.7604 2.84379C13.1007 2.50351 13.5139 2.33337 14 2.33337C14.4861 2.33337 14.8993 2.50351 15.2396 2.84379C15.5799 3.18407 15.75 3.59726 15.75 4.08337V4.90004C17.3056 5.28893 18.5694 6.11046 19.5417 7.36462C20.5139 8.61879 21 10.0528 21 11.6667V19.8334H23.3333V22.1667H4.66667ZM14 25.6667C13.3583 25.6667 12.809 25.4382 12.3521 24.9813C11.8951 24.5243 11.6667 23.975 11.6667 23.3334H16.3333C16.3333 23.975 16.1049 24.5243 15.6479 24.9813C15.191 25.4382 14.6417 25.6667 14 25.6667Z" fill="#D5D5D5"/>
</g>
</svg>
