<svg width="28" height="28" viewBox="0 0 28 28" fill="none" xmlns="http://www.w3.org/2000/svg">
<mask id="mask0_44_288" style="mask-type:alpha" maskUnits="userSpaceOnUse" x="0" y="0" width="28" height="28">
<rect width="28" height="28" fill="#D9D9D9"/>
</mask>
<g mask="url(#mask0_44_288)">
<path d="M2.33333 8.16671V2.33337H8.16667V4.66671H4.66667V8.16671H2.33333ZM2.33333 25.6667V19.8334H4.66667V23.3334H8.16667V25.6667H2.33333ZM19.8333 25.6667V23.3334H23.3333V19.8334H25.6667V25.6667H19.8333ZM23.3333 8.16671V4.66671H19.8333V2.33337H25.6667V8.16671H23.3333ZM20.4167 20.4167H22.1667V22.1667H20.4167V20.4167ZM20.4167 16.9167H22.1667V18.6667H20.4167V16.9167ZM18.6667 18.6667H20.4167V20.4167H18.6667V18.6667ZM16.9167 20.4167H18.6667V22.1667H16.9167V20.4167ZM15.1667 18.6667H16.9167V20.4167H15.1667V18.6667ZM18.6667 15.1667H20.4167V16.9167H18.6667V15.1667ZM16.9167 16.9167H18.6667V18.6667H16.9167V16.9167ZM15.1667 15.1667H16.9167V16.9167H15.1667V15.1667ZM22.1667 5.83337V12.8334H15.1667V5.83337H22.1667ZM12.8333 15.1667V22.1667H5.83333V15.1667H12.8333ZM12.8333 5.83337V12.8334H5.83333V5.83337H12.8333ZM11.0833 20.4167V16.9167H7.58333V20.4167H11.0833ZM11.0833 11.0834V7.58337H7.58333V11.0834H11.0833ZM20.4167 11.0834V7.58337H16.9167V11.0834H20.4167Z" fill="#D5D5D5"/>
</g>
</svg>
