<svg width="330" height="40" viewBox="0 0 330 40" fill="none" xmlns="http://www.w3.org/2000/svg">
<rect width="330" height="40" rx="10" fill="#D5D5D5" fill-opacity="0.25"/>
<path d="M46.718 19.6792C46.718 18.7272 46.9373 17.8732 47.376 17.1172C47.824 16.3612 48.426 15.7732 49.182 15.3532C49.9473 14.9239 50.7827 14.7092 51.688 14.7092C52.724 14.7092 53.6433 14.9659 54.446 15.4792C55.258 15.9832 55.846 16.7019 56.21 17.6352H54.292C54.04 17.1219 53.69 16.7392 53.242 16.4872C52.794 16.2352 52.276 16.1092 51.688 16.1092C51.044 16.1092 50.47 16.2539 49.966 16.5432C49.462 16.8325 49.0653 17.2479 48.776 17.7892C48.496 18.3305 48.356 18.9605 48.356 19.6792C48.356 20.3979 48.496 21.0279 48.776 21.5692C49.0653 22.1105 49.462 22.5305 49.966 22.8292C50.47 23.1185 51.044 23.2632 51.688 23.2632C52.276 23.2632 52.794 23.1372 53.242 22.8852C53.69 22.6332 54.04 22.2505 54.292 21.7372H56.21C55.846 22.6705 55.258 23.3892 54.446 23.8932C53.6433 24.3972 52.724 24.6492 51.688 24.6492C50.7733 24.6492 49.938 24.4392 49.182 24.0192C48.426 23.5899 47.824 22.9972 47.376 22.2412C46.9373 21.4852 46.718 20.6312 46.718 19.6792ZM58.8901 15.8292C58.6008 15.8292 58.3581 15.7312 58.1621 15.5352C57.9661 15.3392 57.8681 15.0965 57.8681 14.8072C57.8681 14.5179 57.9661 14.2752 58.1621 14.0792C58.3581 13.8832 58.6008 13.7852 58.8901 13.7852C59.1701 13.7852 59.4081 13.8832 59.6041 14.0792C59.8001 14.2752 59.8981 14.5179 59.8981 14.8072C59.8981 15.0965 59.8001 15.3392 59.6041 15.5352C59.4081 15.7312 59.1701 15.8292 58.8901 15.8292ZM59.6741 16.8512V24.5652H58.0781V16.8512H59.6741ZM65.6615 16.7252C66.2682 16.7252 66.8095 16.8512 67.2855 17.1032C67.7709 17.3552 68.1489 17.7285 68.4195 18.2232C68.6902 18.7179 68.8255 19.3152 68.8255 20.0152V24.5652H67.2435V20.2532C67.2435 19.5625 67.0709 19.0352 66.7255 18.6712C66.3802 18.2979 65.9089 18.1112 65.3115 18.1112C64.7142 18.1112 64.2382 18.2979 63.8835 18.6712C63.5382 19.0352 63.3655 19.5625 63.3655 20.2532V24.5652H61.7695V16.8512H63.3655V17.7332C63.6269 17.4159 63.9582 17.1685 64.3595 16.9912C64.7702 16.8139 65.2042 16.7252 65.6615 16.7252ZM77.9313 20.5192C77.9313 20.8085 77.9127 21.0699 77.8753 21.3032H71.9813C72.028 21.9192 72.2567 22.4139 72.6673 22.7872C73.078 23.1605 73.582 23.3472 74.1793 23.3472C75.038 23.3472 75.6447 22.9879 75.9993 22.2692H77.7213C77.488 22.9785 77.0633 23.5619 76.4473 24.0192C75.8407 24.4672 75.0847 24.6912 74.1793 24.6912C73.442 24.6912 72.7793 24.5279 72.1913 24.2012C71.6127 23.8652 71.1553 23.3985 70.8193 22.8012C70.4927 22.1945 70.3293 21.4945 70.3293 20.7012C70.3293 19.9079 70.488 19.2125 70.8053 18.6152C71.132 18.0085 71.5847 17.5419 72.1633 17.2152C72.7513 16.8885 73.4233 16.7252 74.1793 16.7252C74.9073 16.7252 75.556 16.8839 76.1253 17.2012C76.6947 17.5185 77.138 17.9665 77.4553 18.5452C77.7727 19.1145 77.9313 19.7725 77.9313 20.5192ZM76.2653 20.0152C76.256 19.4272 76.046 18.9559 75.6353 18.6012C75.2247 18.2465 74.716 18.0692 74.1093 18.0692C73.5587 18.0692 73.0873 18.2465 72.6953 18.6012C72.3033 18.9465 72.07 19.4179 71.9953 20.0152H76.2653ZM81.098 17.9852C81.3686 17.6305 81.7373 17.3319 82.204 17.0892C82.6706 16.8465 83.198 16.7252 83.786 16.7252C84.458 16.7252 85.0693 16.8932 85.62 17.2292C86.18 17.5559 86.6186 18.0179 86.936 18.6152C87.2533 19.2125 87.412 19.8985 87.412 20.6732C87.412 21.4479 87.2533 22.1432 86.936 22.7592C86.6186 23.3659 86.18 23.8419 85.62 24.1872C85.0693 24.5232 84.458 24.6912 83.786 24.6912C83.198 24.6912 82.6753 24.5745 82.218 24.3412C81.7606 24.0985 81.3873 23.7999 81.098 23.4452V28.2332H79.502V16.8512H81.098V17.9852ZM85.788 20.6732C85.788 20.1412 85.676 19.6839 85.452 19.3012C85.2373 18.9092 84.948 18.6152 84.584 18.4192C84.2293 18.2139 83.8466 18.1112 83.436 18.1112C83.0346 18.1112 82.652 18.2139 82.288 18.4192C81.9333 18.6245 81.644 18.9232 81.42 19.3152C81.2053 19.7072 81.098 20.1692 81.098 20.7012C81.098 21.2332 81.2053 21.6999 81.42 22.1012C81.644 22.4932 81.9333 22.7919 82.288 22.9972C82.652 23.2025 83.0346 23.3052 83.436 23.3052C83.8466 23.3052 84.2293 23.2025 84.584 22.9972C84.948 22.7825 85.2373 22.4745 85.452 22.0732C85.676 21.6719 85.788 21.2052 85.788 20.6732ZM92.3362 24.6912C91.6082 24.6912 90.9502 24.5279 90.3622 24.2012C89.7742 23.8652 89.3122 23.3985 88.9762 22.8012C88.6402 22.1945 88.4722 21.4945 88.4722 20.7012C88.4722 19.9172 88.6449 19.2219 88.9902 18.6152C89.3356 18.0085 89.8069 17.5419 90.4042 17.2152C91.0016 16.8885 91.6689 16.7252 92.4062 16.7252C93.1436 16.7252 93.8109 16.8885 94.4082 17.2152C95.0056 17.5419 95.4769 18.0085 95.8222 18.6152C96.1676 19.2219 96.3402 19.9172 96.3402 20.7012C96.3402 21.4852 96.1629 22.1805 95.8082 22.7872C95.4536 23.3939 94.9682 23.8652 94.3522 24.2012C93.7456 24.5279 93.0736 24.6912 92.3362 24.6912ZM92.3362 23.3052C92.7469 23.3052 93.1296 23.2072 93.4842 23.0112C93.8482 22.8152 94.1422 22.5212 94.3662 22.1292C94.5902 21.7372 94.7022 21.2612 94.7022 20.7012C94.7022 20.1412 94.5949 19.6699 94.3802 19.2872C94.1656 18.8952 93.8809 18.6012 93.5262 18.4052C93.1716 18.2092 92.7889 18.1112 92.3782 18.1112C91.9676 18.1112 91.5849 18.2092 91.2302 18.4052C90.8849 18.6012 90.6096 18.8952 90.4042 19.2872C90.1989 19.6699 90.0962 20.1412 90.0962 20.7012C90.0962 21.5319 90.3062 22.1759 90.7262 22.6332C91.1556 23.0812 91.6922 23.3052 92.3362 23.3052ZM99.514 14.2052V24.5652H97.918V14.2052H99.514ZM102.421 15.8292C102.132 15.8292 101.889 15.7312 101.693 15.5352C101.497 15.3392 101.399 15.0965 101.399 14.8072C101.399 14.5179 101.497 14.2752 101.693 14.0792C101.889 13.8832 102.132 13.7852 102.421 13.7852C102.701 13.7852 102.939 13.8832 103.135 14.0792C103.331 14.2752 103.429 14.5179 103.429 14.8072C103.429 15.0965 103.331 15.3392 103.135 15.5352C102.939 15.7312 102.701 15.8292 102.421 15.8292ZM103.205 16.8512V24.5652H101.609V16.8512H103.205ZM108.101 24.6912C107.494 24.6912 106.948 24.5839 106.463 24.3692C105.987 24.1452 105.609 23.8465 105.329 23.4732C105.049 23.0905 104.899 22.6659 104.881 22.1992H106.533C106.561 22.5259 106.715 22.8012 106.995 23.0252C107.284 23.2399 107.643 23.3472 108.073 23.3472C108.521 23.3472 108.866 23.2632 109.109 23.0952C109.361 22.9179 109.487 22.6939 109.487 22.4232C109.487 22.1339 109.347 21.9192 109.067 21.7792C108.796 21.6392 108.362 21.4852 107.765 21.3172C107.186 21.1585 106.715 21.0045 106.351 20.8552C105.987 20.7059 105.669 20.4772 105.399 20.1692C105.137 19.8612 105.007 19.4552 105.007 18.9512C105.007 18.5405 105.128 18.1672 105.371 17.8312C105.613 17.4859 105.959 17.2152 106.407 17.0192C106.864 16.8232 107.387 16.7252 107.975 16.7252C108.852 16.7252 109.557 16.9492 110.089 17.3972C110.63 17.8359 110.919 18.4379 110.957 19.2032H109.361C109.333 18.8579 109.193 18.5825 108.941 18.3772C108.689 18.1719 108.348 18.0692 107.919 18.0692C107.499 18.0692 107.177 18.1485 106.953 18.3072C106.729 18.4659 106.617 18.6759 106.617 18.9372C106.617 19.1425 106.691 19.3152 106.841 19.4552C106.99 19.5952 107.172 19.7072 107.387 19.7912C107.601 19.8659 107.919 19.9639 108.339 20.0852C108.899 20.2345 109.356 20.3885 109.711 20.5472C110.075 20.6965 110.387 20.9205 110.649 21.2192C110.91 21.5179 111.045 21.9145 111.055 22.4092C111.055 22.8479 110.933 23.2399 110.691 23.5852C110.448 23.9305 110.103 24.2012 109.655 24.3972C109.216 24.5932 108.698 24.6912 108.101 24.6912ZM118.012 23.2772H121.302V24.5652H116.416V14.8352H118.012V23.2772ZM123.449 15.8292C123.159 15.8292 122.917 15.7312 122.721 15.5352C122.525 15.3392 122.427 15.0965 122.427 14.8072C122.427 14.5179 122.525 14.2752 122.721 14.0792C122.917 13.8832 123.159 13.7852 123.449 13.7852C123.729 13.7852 123.967 13.8832 124.163 14.0792C124.359 14.2752 124.457 14.5179 124.457 14.8072C124.457 15.0965 124.359 15.3392 124.163 15.5352C123.967 15.7312 123.729 15.8292 123.449 15.8292ZM124.233 16.8512V24.5652H122.637V16.8512H124.233ZM127.924 17.9852C128.195 17.6305 128.563 17.3319 129.03 17.0892C129.497 16.8465 130.024 16.7252 130.612 16.7252C131.284 16.7252 131.895 16.8932 132.446 17.2292C133.006 17.5559 133.445 18.0179 133.762 18.6152C134.079 19.2125 134.238 19.8985 134.238 20.6732C134.238 21.4479 134.079 22.1432 133.762 22.7592C133.445 23.3659 133.006 23.8419 132.446 24.1872C131.895 24.5232 131.284 24.6912 130.612 24.6912C130.024 24.6912 129.501 24.5745 129.044 24.3412C128.587 24.0985 128.213 23.7999 127.924 23.4452V28.2332H126.328V16.8512H127.924V17.9852ZM132.614 20.6732C132.614 20.1412 132.502 19.6839 132.278 19.3012C132.063 18.9092 131.774 18.6152 131.41 18.4192C131.055 18.2139 130.673 18.1112 130.262 18.1112C129.861 18.1112 129.478 18.2139 129.114 18.4192C128.759 18.6245 128.47 18.9232 128.246 19.3152C128.031 19.7072 127.924 20.1692 127.924 20.7012C127.924 21.2332 128.031 21.6999 128.246 22.1012C128.47 22.4932 128.759 22.7919 129.114 22.9972C129.478 23.2025 129.861 23.3052 130.262 23.3052C130.673 23.3052 131.055 23.2025 131.41 22.9972C131.774 22.7825 132.063 22.4745 132.278 22.0732C132.502 21.6719 132.614 21.2052 132.614 20.6732ZM137.412 17.9852C137.683 17.6305 138.052 17.3319 138.518 17.0892C138.985 16.8465 139.512 16.7252 140.1 16.7252C140.772 16.7252 141.384 16.8932 141.934 17.2292C142.494 17.5559 142.933 18.0179 143.25 18.6152C143.568 19.2125 143.726 19.8985 143.726 20.6732C143.726 21.4479 143.568 22.1432 143.25 22.7592C142.933 23.3659 142.494 23.8419 141.934 24.1872C141.384 24.5232 140.772 24.6912 140.1 24.6912C139.512 24.6912 138.99 24.5745 138.532 24.3412C138.075 24.0985 137.702 23.7999 137.412 23.4452V28.2332H135.816V16.8512H137.412V17.9852ZM142.102 20.6732C142.102 20.1412 141.99 19.6839 141.766 19.3012C141.552 18.9092 141.262 18.6152 140.898 18.4192C140.544 18.2139 140.161 18.1112 139.75 18.1112C139.349 18.1112 138.966 18.2139 138.602 18.4192C138.248 18.6245 137.958 18.9232 137.734 19.3152C137.52 19.7072 137.412 20.1692 137.412 20.7012C137.412 21.2332 137.52 21.6999 137.734 22.1012C137.958 22.4932 138.248 22.7919 138.602 22.9972C138.966 23.2025 139.349 23.3052 139.75 23.3052C140.161 23.3052 140.544 23.2025 140.898 22.9972C141.262 22.7825 141.552 22.4745 141.766 22.0732C141.99 21.6719 142.102 21.2052 142.102 20.6732ZM148.651 24.6912C147.923 24.6912 147.265 24.5279 146.677 24.2012C146.089 23.8652 145.627 23.3985 145.291 22.8012C144.955 22.1945 144.787 21.4945 144.787 20.7012C144.787 19.9172 144.959 19.2219 145.305 18.6152C145.65 18.0085 146.121 17.5419 146.719 17.2152C147.316 16.8885 147.983 16.7252 148.721 16.7252C149.458 16.7252 150.125 16.8885 150.723 17.2152C151.32 17.5419 151.791 18.0085 152.137 18.6152C152.482 19.2219 152.655 19.9172 152.655 20.7012C152.655 21.4852 152.477 22.1805 152.123 22.7872C151.768 23.3939 151.283 23.8652 150.667 24.2012C150.06 24.5279 149.388 24.6912 148.651 24.6912ZM148.651 23.3052C149.061 23.3052 149.444 23.2072 149.799 23.0112C150.163 22.8152 150.457 22.5212 150.681 22.1292C150.905 21.7372 151.017 21.2612 151.017 20.7012C151.017 20.1412 150.909 19.6699 150.695 19.2872C150.48 18.8952 150.195 18.6012 149.841 18.4052C149.486 18.2092 149.103 18.1112 148.693 18.1112C148.282 18.1112 147.899 18.2092 147.545 18.4052C147.199 18.6012 146.924 18.8952 146.719 19.2872C146.513 19.6699 146.411 20.1412 146.411 20.7012C146.411 21.5319 146.621 22.1759 147.041 22.6332C147.47 23.0812 148.007 23.3052 148.651 23.3052ZM164.673 17.7332C164.673 18.2279 164.556 18.6945 164.323 19.1332C164.09 19.5719 163.716 19.9312 163.203 20.2112C162.69 20.4819 162.032 20.6172 161.229 20.6172H159.465V24.5652H157.869V14.8352H161.229C161.976 14.8352 162.606 14.9659 163.119 15.2272C163.642 15.4792 164.029 15.8245 164.281 16.2632C164.542 16.7019 164.673 17.1919 164.673 17.7332ZM161.229 19.3152C161.836 19.3152 162.288 19.1799 162.587 18.9092C162.886 18.6292 163.035 18.2372 163.035 17.7332C163.035 16.6692 162.433 16.1372 161.229 16.1372H159.465V19.3152H161.229ZM167.791 14.2052V24.5652H166.195V14.2052H167.791ZM169.355 20.6732C169.355 19.8985 169.513 19.2125 169.831 18.6152C170.157 18.0179 170.596 17.5559 171.147 17.2292C171.707 16.8932 172.323 16.7252 172.995 16.7252C173.601 16.7252 174.129 16.8465 174.577 17.0892C175.034 17.3225 175.398 17.6165 175.669 17.9712V16.8512H177.279V24.5652H175.669V23.4172C175.398 23.7812 175.029 24.0845 174.563 24.3272C174.096 24.5699 173.564 24.6912 172.967 24.6912C172.304 24.6912 171.697 24.5232 171.147 24.1872C170.596 23.8419 170.157 23.3659 169.831 22.7592C169.513 22.1432 169.355 21.4479 169.355 20.6732ZM175.669 20.7012C175.669 20.1692 175.557 19.7072 175.333 19.3152C175.118 18.9232 174.833 18.6245 174.479 18.4192C174.124 18.2139 173.741 18.1112 173.331 18.1112C172.92 18.1112 172.537 18.2139 172.183 18.4192C171.828 18.6152 171.539 18.9092 171.315 19.3012C171.1 19.6839 170.993 20.1412 170.993 20.6732C170.993 21.2052 171.1 21.6719 171.315 22.0732C171.539 22.4745 171.828 22.7825 172.183 22.9972C172.547 23.2025 172.929 23.3052 173.331 23.3052C173.741 23.3052 174.124 23.2025 174.479 22.9972C174.833 22.7919 175.118 22.4932 175.333 22.1012C175.557 21.6999 175.669 21.2332 175.669 20.7012ZM180.789 23.2632H184.289V24.5652H178.941V23.2632L182.455 18.1532H178.941V16.8512H184.289V18.1532L180.789 23.2632ZM185.433 20.6732C185.433 19.8985 185.592 19.2125 185.909 18.6152C186.236 18.0179 186.674 17.5559 187.225 17.2292C187.785 16.8932 188.401 16.7252 189.073 16.7252C189.68 16.7252 190.207 16.8465 190.655 17.0892C191.112 17.3225 191.476 17.6165 191.747 17.9712V16.8512H193.357V24.5652H191.747V23.4172C191.476 23.7812 191.108 24.0845 190.641 24.3272C190.174 24.5699 189.642 24.6912 189.045 24.6912C188.382 24.6912 187.776 24.5232 187.225 24.1872C186.674 23.8419 186.236 23.3659 185.909 22.7592C185.592 22.1432 185.433 21.4479 185.433 20.6732ZM191.747 20.7012C191.747 20.1692 191.635 19.7072 191.411 19.3152C191.196 18.9232 190.912 18.6245 190.557 18.4192C190.202 18.2139 189.82 18.1112 189.409 18.1112C188.998 18.1112 188.616 18.2139 188.261 18.4192C187.906 18.6152 187.617 18.9092 187.393 19.3012C187.178 19.6839 187.071 20.1412 187.071 20.6732C187.071 21.2052 187.178 21.6719 187.393 22.0732C187.617 22.4745 187.906 22.7825 188.261 22.9972C188.625 23.2025 189.008 23.3052 189.409 23.3052C189.82 23.3052 190.202 23.2025 190.557 22.9972C190.912 22.7919 191.196 22.4932 191.411 22.1012C191.635 21.6999 191.747 21.2332 191.747 20.7012ZM204.452 24.5652L200.686 20.2112V24.5652H199.09V14.8352H200.686V19.2732L204.466 14.8352H206.468L202.24 19.7072L206.538 24.5652H204.452ZM207.417 20.6732C207.417 19.8985 207.576 19.2125 207.893 18.6152C208.22 18.0179 208.659 17.5559 209.209 17.2292C209.769 16.8932 210.385 16.7252 211.057 16.7252C211.664 16.7252 212.191 16.8465 212.639 17.0892C213.097 17.3225 213.461 17.6165 213.731 17.9712V16.8512H215.341V24.5652H213.731V23.4172C213.461 23.7812 213.092 24.0845 212.625 24.3272C212.159 24.5699 211.627 24.6912 211.029 24.6912C210.367 24.6912 209.76 24.5232 209.209 24.1872C208.659 23.8419 208.22 23.3659 207.893 22.7592C207.576 22.1432 207.417 21.4479 207.417 20.6732ZM213.731 20.7012C213.731 20.1692 213.619 19.7072 213.395 19.3152C213.181 18.9232 212.896 18.6245 212.541 18.4192C212.187 18.2139 211.804 18.1112 211.393 18.1112C210.983 18.1112 210.6 18.2139 210.245 18.4192C209.891 18.6152 209.601 18.9092 209.377 19.3012C209.163 19.6839 209.055 20.1412 209.055 20.6732C209.055 21.2052 209.163 21.6719 209.377 22.0732C209.601 22.4745 209.891 22.7825 210.245 22.9972C210.609 23.2025 210.992 23.3052 211.393 23.3052C211.804 23.3052 212.187 23.2025 212.541 22.9972C212.896 22.7919 213.181 22.4932 213.395 22.1012C213.619 21.6999 213.731 21.2332 213.731 20.7012ZM218.25 15.8292C217.96 15.8292 217.718 15.7312 217.522 15.5352C217.326 15.3392 217.228 15.0965 217.228 14.8072C217.228 14.5179 217.326 14.2752 217.522 14.0792C217.718 13.8832 217.96 13.7852 218.25 13.7852C218.53 13.7852 218.768 13.8832 218.964 14.0792C219.16 14.2752 219.258 14.5179 219.258 14.8072C219.258 15.0965 219.16 15.3392 218.964 15.5352C218.768 15.7312 218.53 15.8292 218.25 15.8292ZM219.034 16.8512V24.5652H217.438V16.8512H219.034ZM222.725 17.9712C222.958 17.5792 223.266 17.2759 223.649 17.0612C224.041 16.8372 224.503 16.7252 225.035 16.7252V18.3772H224.629C224.004 18.3772 223.528 18.5359 223.201 18.8532C222.884 19.1705 222.725 19.7212 222.725 20.5052V24.5652H221.129V16.8512H222.725V17.9712ZM225.97 20.6732C225.97 19.8985 226.129 19.2125 226.446 18.6152C226.773 18.0179 227.211 17.5559 227.762 17.2292C228.322 16.8932 228.938 16.7252 229.61 16.7252C230.217 16.7252 230.744 16.8465 231.192 17.0892C231.649 17.3225 232.013 17.6165 232.284 17.9712V16.8512H233.894V24.5652H232.284V23.4172C232.013 23.7812 231.645 24.0845 231.178 24.3272C230.711 24.5699 230.179 24.6912 229.582 24.6912C228.919 24.6912 228.313 24.5232 227.762 24.1872C227.211 23.8419 226.773 23.3659 226.446 22.7592C226.129 22.1432 225.97 21.4479 225.97 20.6732ZM232.284 20.7012C232.284 20.1692 232.172 19.7072 231.948 19.3152C231.733 18.9232 231.449 18.6245 231.094 18.4192C230.739 18.2139 230.357 18.1112 229.946 18.1112C229.535 18.1112 229.153 18.2139 228.798 18.4192C228.443 18.6152 228.154 18.9092 227.93 19.3012C227.715 19.6839 227.608 20.1412 227.608 20.6732C227.608 21.2052 227.715 21.6719 227.93 22.0732C228.154 22.4745 228.443 22.7825 228.798 22.9972C229.162 23.2025 229.545 23.3052 229.946 23.3052C230.357 23.3052 230.739 23.2025 231.094 22.9972C231.449 22.7919 231.733 22.4932 231.948 22.1012C232.172 21.6999 232.284 21.2332 232.284 20.7012ZM239.098 16.7252C239.696 16.7252 240.223 16.8465 240.68 17.0892C241.147 17.3225 241.511 17.6165 241.772 17.9712V16.8512H243.382V24.6912C243.382 25.4005 243.233 26.0305 242.934 26.5812C242.636 27.1412 242.202 27.5799 241.632 27.8972C241.072 28.2145 240.4 28.3732 239.616 28.3732C238.571 28.3732 237.703 28.1259 237.012 27.6312C236.322 27.1459 235.93 26.4832 235.836 25.6432H237.418C237.54 26.0445 237.796 26.3665 238.188 26.6092C238.59 26.8612 239.066 26.9872 239.616 26.9872C240.26 26.9872 240.778 26.7912 241.17 26.3992C241.572 26.0072 241.772 25.4379 241.772 24.6912V23.4032C241.502 23.7672 241.133 24.0752 240.666 24.3272C240.209 24.5699 239.686 24.6912 239.098 24.6912C238.426 24.6912 237.81 24.5232 237.25 24.1872C236.7 23.8419 236.261 23.3659 235.934 22.7592C235.617 22.1432 235.458 21.4479 235.458 20.6732C235.458 19.8985 235.617 19.2125 235.934 18.6152C236.261 18.0179 236.7 17.5559 237.25 17.2292C237.81 16.8932 238.426 16.7252 239.098 16.7252ZM241.772 20.7012C241.772 20.1692 241.66 19.7072 241.436 19.3152C241.222 18.9232 240.937 18.6245 240.582 18.4192C240.228 18.2139 239.845 18.1112 239.434 18.1112C239.024 18.1112 238.641 18.2139 238.286 18.4192C237.932 18.6152 237.642 18.9092 237.418 19.3012C237.204 19.6839 237.096 20.1412 237.096 20.6732C237.096 21.2052 237.204 21.6719 237.418 22.0732C237.642 22.4745 237.932 22.7825 238.286 22.9972C238.65 23.2025 239.033 23.3052 239.434 23.3052C239.845 23.3052 240.228 23.2025 240.582 22.9972C240.937 22.7919 241.222 22.4932 241.436 22.1012C241.66 21.6999 241.772 21.2332 241.772 20.7012ZM246.291 15.8292C246.001 15.8292 245.759 15.7312 245.563 15.5352C245.367 15.3392 245.269 15.0965 245.269 14.8072C245.269 14.5179 245.367 14.2752 245.563 14.0792C245.759 13.8832 246.001 13.7852 246.291 13.7852C246.571 13.7852 246.809 13.8832 247.005 14.0792C247.201 14.2752 247.299 14.5179 247.299 14.8072C247.299 15.0965 247.201 15.3392 247.005 15.5352C246.809 15.7312 246.571 15.8292 246.291 15.8292ZM247.075 16.8512V24.5652H245.479V16.8512H247.075Z" fill="#D5D5D5" fill-opacity="0.83"/>
</svg>
