<svg width="11" height="11" viewBox="0 0 11 11" fill="none" xmlns="http://www.w3.org/2000/svg">
<mask id="mask0_736_16" style="mask-type:alpha" maskUnits="userSpaceOnUse" x="0" y="0" width="11" height="11">
<rect width="11" height="11" fill="#D9D9D9"/>
</mask>
<g mask="url(#mask0_736_16)">
<path d="M2.75 11.1667C2.49792 11.1667 2.28212 11.0769 2.1026 10.8974C1.92309 10.7179 1.83333 10.5021 1.83333 10.25C1.83333 9.99792 1.92309 9.78212 2.1026 9.6026C2.28212 9.42309 2.49792 9.33333 2.75 9.33333C3.00208 9.33333 3.21788 9.42309 3.3974 9.6026C3.57691 9.78212 3.66667 9.99792 3.66667 10.25C3.66667 10.5021 3.57691 10.7179 3.3974 10.8974C3.21788 11.0769 3.00208 11.1667 2.75 11.1667ZM7.33333 11.1667C7.08125 11.1667 6.86545 11.0769 6.68594 10.8974C6.50642 10.7179 6.41667 10.5021 6.41667 10.25C6.41667 9.99792 6.50642 9.78212 6.68594 9.6026C6.86545 9.42309 7.08125 9.33333 7.33333 9.33333C7.58542 9.33333 7.80122 9.42309 7.98073 9.6026C8.16024 9.78212 8.25 9.99792 8.25 10.25C8.25 10.5021 8.16024 10.7179 7.98073 10.8974C7.80122 11.0769 7.58542 11.1667 7.33333 11.1667ZM2.36042 3.83333L3.46042 6.125H6.66875L7.92917 3.83333H2.36042ZM1.925 2.91667H8.68542C8.86111 2.91667 8.99479 2.99497 9.08646 3.15156C9.17813 3.30816 9.18194 3.46667 9.09792 3.62708L7.47083 6.56042C7.38681 6.71319 7.27413 6.8316 7.13281 6.91563C6.99149 6.99965 6.83681 7.04167 6.66875 7.04167H3.25417L2.75 7.95833H8.25V8.875H2.75C2.40625 8.875 2.14653 8.72413 1.97083 8.4224C1.79514 8.12066 1.7875 7.82083 1.94792 7.52292L2.56667 6.4L0.916667 2.91667H0V2H1.48958L1.925 2.91667Z" fill="#D8D7DC"/>
</g>
</svg>
