<svg width="111" height="21" viewBox="0 0 111 21" fill="none" xmlns="http://www.w3.org/2000/svg">
<mask id="mask0_66_130" style="mask-type:alpha" maskUnits="userSpaceOnUse" x="88" y="0" width="23" height="21">
<rect x="88.9834" width="22.0165" height="21" fill="#D9D9D9"/>
</mask>
<g mask="url(#mask0_66_130)">
<path d="M99.9917 7.10938V13.9344L102.881 15.6188L102.125 12.4688L104.67 10.3688L101.322 10.0844L99.9917 7.10938ZM94.3271 19.25L95.8178 13.1031L90.8182 8.96875L97.4231 8.42188L99.9917 2.625L102.56 8.42188L109.165 8.96875L104.166 13.1031L105.656 19.25L99.9917 15.9906L94.3271 19.25Z" fill="#FFA300"/>
</g>
<mask id="mask1_66_130" style="mask-type:alpha" maskUnits="userSpaceOnUse" x="0" y="0" width="23" height="21">
<rect width="22.0165" height="21" fill="#D9D9D9"/>
</mask>
<g mask="url(#mask1_66_130)">
<path d="M5.34366 19.25L6.83436 13.1031L1.83478 8.96875L8.43974 8.42188L11.0083 2.625L13.5769 8.42188L20.1819 8.96875L15.1823 13.1031L16.673 19.25L11.0083 15.9906L5.34366 19.25Z" fill="#FFA300"/>
</g>
<mask id="mask2_66_130" style="mask-type:alpha" maskUnits="userSpaceOnUse" x="22" y="0" width="23" height="21">
<rect x="22.0166" width="22.0165" height="21" fill="#D9D9D9"/>
</mask>
<g mask="url(#mask2_66_130)">
<path d="M27.3602 19.25L28.8509 13.1031L23.8513 8.96875L30.4563 8.42188L33.0249 2.625L35.5935 8.42188L42.1985 8.96875L37.1989 13.1031L38.6896 19.25L33.0249 15.9906L27.3602 19.25Z" fill="#FFA300"/>
</g>
<mask id="mask3_66_130" style="mask-type:alpha" maskUnits="userSpaceOnUse" x="44" y="0" width="23" height="21">
<rect x="44.0332" width="22.0165" height="21" fill="#D9D9D9"/>
</mask>
<g mask="url(#mask3_66_130)">
<path d="M49.3765 19.25L50.8672 13.1031L45.8676 8.96875L52.4726 8.42188L55.0412 2.625L57.6098 8.42188L64.2147 8.96875L59.2152 13.1031L60.7059 19.25L55.0412 15.9906L49.3765 19.25Z" fill="#FFA300"/>
</g>
<mask id="mask4_66_130" style="mask-type:alpha" maskUnits="userSpaceOnUse" x="66" y="0" width="23" height="21">
<rect x="66.9668" width="22.0165" height="21" fill="#D9D9D9"/>
</mask>
<g mask="url(#mask4_66_130)">
<path d="M72.3105 19.25L73.8012 13.1031L68.8016 8.96875L75.4065 8.42188L77.9751 2.625L80.5437 8.42188L87.1487 8.96875L82.1491 13.1031L83.6398 19.25L77.9751 15.9906L72.3105 19.25Z" fill="#FFA300"/>
</g>
</svg>
